<?xml version="1.0" standalone="no"?><!DOCTYPE svg PUBLIC "-//W3C//DTD SVG 1.1//EN" "http://www.w3.org/Graphics/SVG/1.1/DTD/svg11.dtd"><svg height="2712" node-id="1" sillyvg="true" template-height="2712" template-width="3861" version="1.1" viewBox="0 0 3861 2712" width="3861" xmlns="http://www.w3.org/2000/svg" xmlns:xlink="http://www.w3.org/1999/xlink"><defs node-id="99"><linearGradient gradientUnits="userSpaceOnUse" id="paint0_linear_91_430" node-id="37" spreadMethod="pad" x1="404.332" x2="404.332" y1="759.469" y2="438.424"><stop offset="0" stop-color="#ffffff" stop-opacity="0.1"></stop><stop offset="1" stop-color="#d9e9ff"></stop></linearGradient><linearGradient gradientUnits="userSpaceOnUse" id="paint1_linear_91_430" node-id="40" spreadMethod="pad" x1="2540.24" x2="2540.24" y1="587.782" y2="312.018"><stop offset="0" stop-color="#ffffff" stop-opacity="0.1"></stop><stop offset="0.14" stop-color="#f8fbff" stop-opacity="0.27"></stop><stop offset="0.37" stop-color="#edf5ff" stop-opacity="0.52"></stop><stop offset="0.58" stop-color="#e4f0ff" stop-opacity="0.73"></stop><stop offset="0.76" stop-color="#deecff" stop-opacity="0.88"></stop><stop offset="0.91" stop-color="#daeaff" stop-opacity="0.97"></stop><stop offset="1" stop-color="#d9e9ff"></stop></linearGradient><linearGradient gradientUnits="userSpaceOnUse" id="paint2_linear_91_430" node-id="48" spreadMethod="pad" x1="3353.86" x2="3353.86" y1="607.017" y2="-0.492787"><stop offset="0" stop-color="#ffffff" stop-opacity="0.1"></stop><stop offset="0.09" stop-color="#fefeff" stop-opacity="0.13"></stop><stop offset="0.23" stop-color="#fbfcff" stop-opacity="0.21"></stop><stop offset="0.4" stop-color="#f5f9ff" stop-opacity="0.33"></stop><stop offset="0.59" stop-color="#eef5ff" stop-opacity="0.51"></stop><stop offset="0.79" stop-color="#e4efff" stop-opacity="0.74"></stop><stop offset="1" stop-color="#d9e9ff"></stop></linearGradient><linearGradient gradientUnits="userSpaceOnUse" id="paint3_linear_91_430" node-id="56" spreadMethod="pad" x1="1908" x2="1908" y1="2659.63" y2="1452.22"><stop offset="0" stop-color="#ffffff" stop-opacity="0.1"></stop><stop offset="0.13" stop-color="#fbfdff" stop-opacity="0.19"></stop><stop offset="0.41" stop-color="#f1f7ff" stop-opacity="0.43"></stop><stop offset="0.81" stop-color="#e1eeff" stop-opacity="0.82"></stop><stop offset="1" stop-color="#d9e9ff"></stop></linearGradient><linearGradient gradientUnits="userSpaceOnUse" id="paint4_linear_91_430" node-id="62" spreadMethod="pad" x1="1504.12" x2="1858.19" y1="2000.63" y2="2681.91"><stop offset="0" stop-color="#5792f0"></stop><stop offset="1" stop-color="#bfd4fa" stop-opacity="0"></stop></linearGradient><linearGradient gradientUnits="userSpaceOnUse" id="paint5_linear_91_430" node-id="65" spreadMethod="pad" x1="2651.7" x2="2304.77" y1="1139.11" y2="745.417"><stop offset="0" stop-color="#3497fc"></stop><stop offset="1" stop-color="#bddcfc"></stop></linearGradient><linearGradient gradientUnits="userSpaceOnUse" id="paint6_linear_91_430" node-id="68" spreadMethod="pad" x1="2397.6" x2="1781.88" y1="1928.8" y2="1306.1"><stop offset="0" stop-color="#3497fc"></stop><stop offset="1" stop-color="#c0ddfc"></stop></linearGradient><linearGradient gradientUnits="userSpaceOnUse" id="paint7_linear_91_430" node-id="71" spreadMethod="pad" x1="2074.5" x2="1673" y1="1753" y2="1753"><stop offset="0" stop-color="#eaf0fc"></stop><stop offset="1" stop-color="#cfdffa"></stop></linearGradient><linearGradient gradientUnits="userSpaceOnUse" id="paint8_linear_91_430" node-id="74" spreadMethod="pad" x1="1516.09" x2="1171.69" y1="1481.22" y2="1184.83"><stop offset="0" stop-color="#3497fc"></stop><stop offset="1" stop-color="#c4e0fc"></stop></linearGradient><linearGradient gradientUnits="userSpaceOnUse" id="paint9_linear_91_430" node-id="77" spreadMethod="pad" x1="2534.69" x2="2190.29" y1="1481.22" y2="1184.83"><stop offset="0" stop-color="#3497fc"></stop><stop offset="1" stop-color="#c4e0fc"></stop></linearGradient><linearGradient gradientUnits="userSpaceOnUse" id="paint10_linear_91_430" node-id="80" spreadMethod="pad" x1="2215.07" x2="1684.24" y1="753.641" y2="1056.52"><stop offset="0" stop-color="#5792f0"></stop><stop offset="1" stop-color="#bfd4fa" stop-opacity="0.5"></stop></linearGradient><linearGradient gradientUnits="userSpaceOnUse" id="paint11_linear_91_430" node-id="83" spreadMethod="pad" x1="1687.55" x2="1792.61" y1="102.102" y2="419.893"><stop offset="0" stop-color="#eef6ff"></stop><stop offset="1" stop-color="#3497fc"></stop></linearGradient><linearGradient gradientUnits="userSpaceOnUse" id="paint12_linear_91_430" node-id="86" spreadMethod="pad" x1="2790.16" x2="2790.16" y1="1380.37" y2="1460.12"><stop offset="0" stop-color="#ffcda5"></stop><stop offset="1" stop-color="#ffe8d1"></stop></linearGradient><linearGradient gradientUnits="userSpaceOnUse" id="paint13_linear_91_430" node-id="89" spreadMethod="pad" x1="2787.09" x2="2787.09" y1="1242" y2="1410"><stop offset="0" stop-color="#fff2df"></stop><stop offset="1" stop-color="#fee0bc"></stop></linearGradient><linearGradient gradientUnits="userSpaceOnUse" id="paint14_linear_91_430" node-id="92" spreadMethod="pad" x1="2764.79" x2="2708.81" y1="2130.84" y2="2189.86"><stop offset="0" stop-color="#003a8c"></stop><stop offset="1" stop-color="#5792f0"></stop></linearGradient><linearGradient gradientUnits="userSpaceOnUse" id="paint15_linear_91_430" node-id="95" spreadMethod="pad" x1="2923.93" x2="2867.94" y1="2130.84" y2="2189.86"><stop offset="0" stop-color="#003a8c"></stop><stop offset="1" stop-color="#5792f0"></stop></linearGradient></defs><path d="M 750.42 1504.39 L 767.67 1683.27 L 659.60 1671.38 L 750.42 1504.39 Z" fill="#e4efff" fill-rule="nonzero" node-id="224" stroke="none" target-height="178.88" target-width="108.07001" target-x="659.6" target-y="1504.39"></path><path d="M 745.31 1504.39 L 857.11 1645.59 L 762.27 1683.27 L 745.31 1504.39 Z" fill="#f3f8ff" fill-rule="nonzero" node-id="226" stroke="none" target-height="178.88" target-width="111.79999" target-x="745.31" target-y="1504.39"></path><path d="M 373.92 1549.11 L 395.02 1776.43 L 264.59 1761.27 L 373.92 1549.11 Z" fill="#e4efff" fill-rule="nonzero" node-id="228" stroke="none" target-height="227.32007" target-width="130.43" target-x="264.59" target-y="1549.11"></path><path d="M 376.38 1549.11 L 514.27 1728.77 L 397.51 1776.43 L 376.38 1549.11 Z" fill="#f3f8ff" fill-rule="nonzero" node-id="230" stroke="none" target-height="227.32007" target-width="137.89001" target-x="376.38" target-y="1549.11"></path><path d="M 553.32 1392.60 L 588.80 1768.98 L 350.30 1745.54 L 553.32 1392.60 Z" fill="#e4efff" fill-rule="nonzero" node-id="232" stroke="none" target-height="376.38" target-width="238.5" target-x="350.3" target-y="1392.6"></path><path d="M 547.80 1392.60 L 797.48 1688.37 L 583.32 1768.98 L 547.80 1392.60 Z" fill="#f3f8ff" fill-rule="nonzero" node-id="234" stroke="none" target-height="376.38" target-width="249.68" target-x="547.8" target-y="1392.6"></path><path d="M 623.19 565.41 C 609.26 490.81 544.12 437.26 468.99 438.63 C 428.78 438.45 389.99 453.50 360.28 480.89 C 343.66 473.29 325.63 469.38 307.37 469.38 C 249.53 468.45 198.89 508.40 185.81 565.30 C 141.35 575.21 109.30 614.42 108.07 660.37 C 109.78 716.30 155.84 760.35 211.22 759.04 L 597.44 759.04 C 652.86 760.42 698.95 716.34 700.59 660.37 C 699.40 614.53 667.50 575.40 623.19 565.41 Z" fill="url(#paint0_linear_91_430)" fill-rule="nonzero" node-id="236" stroke="none" target-height="323.15997" target-width="592.52" target-x="108.07" target-y="437.26"></path><path d="M 2728.74 416.73 C 2708.69 385.24 2674.74 365.72 2637.81 364.38 C 2616.31 331.10 2579.45 311.35 2540.21 312.02 C 2508.80 311.72 2478.54 324.24 2456.29 346.82 C 2446.12 343.54 2435.50 341.83 2424.84 341.83 C 2375.42 341.83 2334.62 376.49 2330.41 420.35 C 2292.73 429.44 2265.60 462.79 2264.00 502.03 C 2264.00 549.29 2306.71 587.78 2358.43 587.78 L 2721.10 587.78 C 2773.57 587.78 2815.53 549.29 2815.53 502.03 C 2816.35 457.13 2777.56 420.24 2728.74 416.73 Z" fill="url(#paint1_linear_91_430)" fill-rule="nonzero" node-id="238" stroke="none" target-height="276.43002" target-width="552.3501" target-x="2264" target-y="311.35"></path><path d="M 3710.15 192.82 C 3674.75 119.89 3600.85 73.45 3519.69 73.19 C 3474.48 73.31 3430.51 87.95 3394.29 114.97 C 3351.21 30.97 3257.60 -14.27 3164.96 4.03 C 3072.28 22.36 3003.00 99.84 2995.17 193.86 C 2895.49 225.31 2833.63 324.62 2849.47 427.85 C 2865.34 531.08 2954.14 607.32 3058.67 607.43 L 3648.40 607.43 C 3753.53 607.62 3842.93 530.74 3858.32 426.88 C 3873.75 322.99 3810.51 223.52 3709.85 193.23 L 3710.15 192.82 Z" fill="url(#paint2_linear_91_430)" fill-rule="nonzero" node-id="240" stroke="none" target-height="621.89" target-width="1040.1201" target-x="2833.63" target-y="-14.27"></path><path d="M 3816.00 2055.93 C 3816.00 2216.06 3614.99 2369.59 3257.16 2482.80 C 2899.34 2596.02 2414.03 2659.63 1908.00 2659.63 C 1401.97 2659.63 916.66 2596.02 558.84 2482.80 C 201.01 2369.59 0.00 2216.06 0.00 2055.93 C 0.00 1895.80 201.01 1742.26 558.84 1629.05 C 916.66 1515.84 1401.97 1452.22 1908.00 1452.22 C 2414.03 1452.22 2899.34 1515.84 3257.16 1629.05 C 3614.99 1742.26 3816.00 1895.80 3816.00 2055.93 Z" fill="url(#paint3_linear_91_430)" fill-rule="nonzero" node-id="242" stroke="none" target-height="1207.4099" target-width="3816" target-x="0" target-y="1452.22"></path><path d="M 3376.27 1549.11 L 3358.12 1787.61 L 3223.48 1748.56 L 3376.27 1549.11 Z" fill="#e4efff" fill-rule="nonzero" node-id="244" stroke="none" target-height="238.5" target-width="152.79004" target-x="3223.48" target-y="1549.11"></path><path d="M 3371.98 1549.11 L 3484.34 1759.25 L 3353.91 1787.61 L 3371.98 1549.11 Z" fill="#f3f8ff" fill-rule="nonzero" node-id="246" stroke="none" target-height="238.5" target-width="130.43018" target-x="3353.91" target-y="1549.11"></path><path d="M 1395.18 2042.02 L 2709.06 2711.70 L 3671.68 2165.56 L 2435.88 1781.95 L 1395.18 2042.02 Z" fill="url(#paint4_linear_91_430)" fill-opacity="0.3" fill-rule="nonzero" node-id="248" stroke="none" target-height="929.75" target-width="2276.5" target-x="1395.18" target-y="1781.95"></path><path d="M 1503.89 968.45 L 1361.00 1310.24 L 2530.02 1310.24 L 2384.82 968.45 L 1503.89 968.45 Z" fill="url(#paint5_linear_91_430)" fill-rule="nonzero" node-id="250" stroke="none" target-height="341.78998" target-width="1169.02" target-x="1361" target-y="968.45"></path><path d="M 1769.32 1043.62 L 2121.69 1043.62 L 2126.76 1044.37 L 2131.09 1046.16 L 2134.89 1049.10 L 2137.79 1052.86 L 2139.62 1057.22 L 2140.33 1062.26 L 2140.33 1093.38 L 2139.62 1098.41 L 2137.79 1102.77 L 2134.89 1106.53 L 2131.09 1109.48 L 2126.76 1111.30 L 2121.69 1112.01 L 1769.32 1112.01 L 1764.25 1111.30 L 1759.89 1109.48 L 1756.12 1106.53 L 1753.18 1102.77 L 1751.39 1098.41 L 1750.68 1093.38 L 1750.68 1062.26 L 1751.39 1057.22 L 1753.18 1052.86 L 1756.12 1049.10 L 1759.89 1046.16 L 1764.25 1044.37 L 1769.32 1043.62 Z" fill="#ffffff" fill-rule="evenodd" node-id="252" stroke="none" target-height="68.390015" target-width="389.65002" target-x="1750.68" target-y="1043.62"></path><path d="M 1361.00 1310.24 L 2530.02 1310.24 L 2493.08 2041.72 L 1397.93 2041.72 L 1361.00 1310.24 Z" fill="url(#paint6_linear_91_430)" fill-rule="nonzero" node-id="254" stroke="none" target-height="731.48" target-width="1169.02" target-x="1361" target-y="1310.24"></path><path d="M 1728.28 1419.63 L 2162.73 1419.63 L 2167.80 1420.34 L 2172.12 1422.16 L 2175.89 1425.11 L 2178.83 1428.87 L 2180.66 1433.19 L 2181.36 1438.26 L 2181.36 1469.35 L 2180.66 1474.41 L 2178.83 1478.78 L 2175.89 1482.54 L 2172.12 1485.48 L 2167.80 1487.27 L 2162.73 1487.98 L 1728.28 1487.98 L 1723.22 1487.27 L 1718.89 1485.48 L 1715.09 1482.54 L 1712.18 1478.78 L 1710.36 1474.41 L 1709.65 1469.35 L 1709.65 1438.26 L 1710.36 1433.19 L 1712.18 1428.87 L 1715.09 1425.11 L 1718.89 1422.16 L 1723.22 1420.34 L 1728.28 1419.63 Z" fill="#ffffff" fill-rule="evenodd" node-id="256" stroke="none" target-height="68.349976" target-width="471.71008" target-x="1709.65" target-y="1419.63"></path><path d="M 1945.49 1879.37 L 1832.30 1938.89 L 1829.43 1939.71 L 1826.60 1939.41 L 1824.10 1938.07 L 1822.24 1935.76 L 1821.46 1933.45 L 1821.49 1931.03 L 1843.11 1804.98 L 1751.50 1715.69 L 1749.83 1713.23 L 1749.27 1710.47 L 1749.75 1707.67 L 1751.39 1705.14 L 1753.33 1703.72 L 1755.64 1702.98 L 1882.21 1684.60 L 1938.82 1569.89 L 1940.64 1567.54 L 1943.10 1566.13 L 1945.94 1565.75 L 1948.81 1566.50 L 1950.78 1567.92 L 1952.20 1569.89 L 2008.81 1684.60 L 2135.37 1702.98 L 2138.17 1703.98 L 2140.26 1705.89 L 2141.49 1708.46 L 2141.67 1711.44 L 2140.93 1713.75 L 2139.51 1715.69 L 2047.90 1804.98 L 2069.52 1931.03 L 2069.45 1934.01 L 2068.25 1936.58 L 2066.24 1938.56 L 2063.45 1939.64 L 2061.02 1939.64 L 2058.71 1938.89 L 1945.49 1879.37 Z" fill="url(#paint7_linear_91_430)" fill-rule="evenodd" node-id="258" stroke="none" target-height="373.95996" target-width="392.3999" target-x="1749.27" target-y="1565.75"></path><path d="M 1503.07 968.45 L 1511.42 1310.24 L 1361.00 1310.24 L 1503.07 968.45 Z" fill="url(#paint8_linear_91_430)" fill-rule="nonzero" node-id="260" stroke="none" target-height="341.78998" target-width="150.42004" target-x="1361" target-y="968.45"></path><path d="M 2387.95 968.45 L 2379.60 1310.24 L 2530.02 1310.24 L 2387.95 968.45 Z" fill="url(#paint9_linear_91_430)" fill-rule="nonzero" node-id="262" stroke="none" target-height="341.78998" target-width="150.41992" target-x="2379.6" target-y="968.45"></path><path d="M 1660.30 502.18 L 1662.35 545.04 L 1666.31 582.90 L 1671.86 616.30 L 1678.90 645.59 L 1687.25 671.23 L 1696.72 693.59 L 1707.26 712.97 L 1718.74 729.71 L 1731.23 744.02 L 1744.64 756.20 L 1759.07 766.34 L 1774.65 774.58 L 1791.45 780.95 L 1809.68 785.46 L 1829.54 788.03 L 1851.20 788.55 L 1870.99 786.99 L 1889.47 783.82 L 1906.76 779.09 L 1923.01 772.86 L 1938.85 765.04 L 1953.39 756.24 L 1966.77 746.48 L 1979.07 735.67 L 1994.05 719.75 L 2006.65 703.13 L 2017.04 685.76 L 2025.50 667.35 L 2031.32 649.43 L 2034.78 631.84 L 2035.83 618.31 L 2035.31 605.67 L 2033.37 593.82 L 2030.01 582.60 L 2025.09 572.02 L 2018.61 562.63 L 2010.48 554.24 L 2000.53 546.86 L 1989.80 541.27 L 1977.09 537.06 L 1962.00 534.34 L 1944.11 533.30 L 1930.32 539.56 L 1918.39 546.90 L 1908.18 555.29 L 1899.53 564.75 L 1892.27 575.45 L 1886.86 586.85 L 1883.21 599.08 L 1881.31 612.31 L 1881.35 625.46 L 1883.40 639.25 L 1887.57 653.79 L 1894.17 669.25 L 1902.18 683.42 L 1912.73 698.06 L 1926.11 713.23 L 1942.69 729.03 L 1959.76 742.82 L 1980.00 756.76 L 2003.81 770.81 L 2031.54 784.98 L 2058.86 796.94 L 2090.05 808.53 L 2125.42 819.71 L 2165.37 830.41 L 2187.96 833.69 L 2207.19 838.16 L 2223.55 843.64 L 2237.34 850.05 L 2250.72 858.32 L 2261.79 867.26 L 2270.77 876.92 L 2277.93 887.32 L 2283.59 898.76 L 2287.69 910.76 L 2290.26 923.47 L 2291.27 936.96 L 2290.41 955.00 L 2287.24 973.85 L 2281.58 993.72 L 2274.09 1013.02 L 2264.58 1032.55 L 2252.99 1052.34 L 2240.06 1071.28 L 2225.64 1089.65 L 2209.65 1107.50 L 2192.58 1124.27 L 2174.62 1139.74 L 2155.72 1153.94 L 2135.89 1166.76 L 2115.77 1177.57 L 2095.35 1186.44" fill="none" node-id="264" stroke="url(#paint10_linear_91_430)" stroke-dasharray="4 4" stroke-linecap="round" stroke-width="1" target-height="684.25995" target-width="630.97" target-x="1660.3" target-y="502.18"></path><path d="M 1590.76 393.98 L 1497.00 430.84 L 1462.52 129.00 L 1770.33 325.26 L 1686.51 361.41 L 1493.60 172.75 L 1646.59 378.52 L 1645.74 463.75 L 1590.76 393.98 Z" fill="url(#paint11_linear_91_430)" fill-rule="nonzero" node-id="266" stroke="none" target-height="334.75" target-width="307.80994" target-x="1462.52" target-y="129"></path><path d="M 3022.02 2180.31 L 3021.00 2186.79 L 3018.18 2193.18 L 3013.20 2199.66 L 3005.57 2206.40 L 2994.31 2213.64 L 2979.60 2220.76 L 2960.68 2227.67 L 2941.41 2233.17 L 2919.33 2237.99 L 2894.13 2242.04 L 2868.90 2244.89 L 2841.74 2246.64 L 2812.67 2247.32 L 2783.55 2246.64 L 2756.44 2244.89 L 2731.16 2242.04 L 2705.96 2237.99 L 2683.88 2233.17 L 2664.61 2227.67 L 2645.73 2220.76 L 2630.98 2213.64 L 2619.77 2206.40 L 2612.13 2199.66 L 2607.15 2193.18 L 2604.29 2186.79 L 2603.31 2180.31 L 2604.29 2173.87 L 2607.15 2167.48 L 2612.13 2160.95 L 2619.77 2154.26 L 2630.98 2147.01 L 2645.73 2139.89 L 2664.61 2132.95 L 2683.88 2127.49 L 2705.96 2122.67 L 2731.16 2118.58 L 2756.44 2115.77 L 2783.55 2113.98 L 2812.67 2113.34 L 2841.74 2113.98 L 2868.90 2115.77 L 2894.13 2118.58 L 2919.33 2122.67 L 2941.41 2127.49 L 2960.68 2132.95 L 2979.60 2139.89 L 2994.31 2147.01 L 3005.57 2154.26 L 3013.20 2160.95 L 3018.18 2167.48 L 3021.00 2173.87 L 3022.02 2180.31 Z" fill="#84c1ff" fill-opacity="0.15" fill-rule="evenodd" node-id="268" stroke="none" target-height="133.97998" target-width="418.70996" target-x="2603.31" target-y="2113.34"></path><path d="M 2756.65 1393.10 L 2823.66 1393.10 L 2823.66 1460.12 L 2756.65 1460.12 L 2756.65 1393.10 Z" fill="url(#paint12_linear_91_430)" fill-rule="evenodd" node-id="270" stroke="none" target-height="67.02002" target-width="67.01001" target-x="2756.65" target-y="1393.1"></path><path d="M 2858.10 1343.39 L 2854.01 1350.77 L 2849.15 1355.76 L 2845.35 1357.93 L 2841.90 1358.61 L 2838.62 1358.10 L 2835.89 1356.18 L 2833.93 1353.28 L 2832.69 1349.06 L 2832.65 1342.16 L 2834.82 1333.97 L 2838.91 1326.60 L 2843.77 1321.61 L 2847.57 1319.44 L 2851.02 1318.71 L 2854.30 1319.27 L 2857.03 1321.14 L 2859.04 1324.08 L 2860.23 1328.30 L 2860.27 1335.21 L 2858.10 1343.39 Z" fill="#fee0bc" fill-rule="evenodd" node-id="272" stroke="none" target-height="39.900024" target-width="27.620117" target-x="2832.65" target-y="1318.71"></path><path d="M 2716.06 1343.60 L 2720.28 1350.89 L 2725.22 1355.79 L 2729.06 1357.88 L 2732.51 1358.52 L 2735.80 1357.97 L 2738.48 1356.00 L 2740.40 1353.06 L 2741.55 1348.84 L 2741.47 1341.89 L 2739.16 1333.75 L 2734.90 1326.46 L 2730.00 1321.56 L 2726.16 1319.47 L 2722.71 1318.79 L 2719.43 1319.39 L 2716.74 1321.35 L 2714.78 1324.29 L 2713.63 1328.51 L 2713.71 1335.46 L 2716.06 1343.60 Z" fill="#fee0bc" fill-rule="evenodd" node-id="274" stroke="none" target-height="39.72998" target-width="27.920166" target-x="2713.63" target-y="1318.79"></path><path d="M 2847.59 1326.02 L 2846.58 1341.33 L 2843.80 1355.40 L 2839.34 1368.40 L 2833.33 1380.20 L 2826.13 1390.20 L 2817.63 1398.54 L 2808.26 1404.74 L 2798.13 1408.59 L 2787.11 1410.00 L 2776.05 1408.59 L 2765.95 1404.74 L 2756.56 1398.54 L 2748.09 1390.20 L 2740.88 1380.20 L 2734.88 1368.40 L 2730.38 1355.40 L 2727.64 1341.33 L 2726.59 1326.02 L 2727.64 1310.67 L 2730.38 1296.65 L 2734.88 1283.60 L 2740.88 1271.85 L 2748.09 1261.84 L 2756.56 1253.50 L 2765.95 1247.26 L 2776.05 1243.45 L 2787.11 1242.00 L 2798.13 1243.45 L 2808.26 1247.26 L 2817.63 1253.50 L 2826.13 1261.84 L 2833.33 1271.85 L 2839.34 1283.60 L 2843.80 1296.65 L 2846.58 1310.67 L 2847.59 1326.02 Z" fill="url(#paint13_linear_91_430)" fill-rule="evenodd" node-id="276" stroke="none" target-height="168" target-width="121" target-x="2726.59" target-y="1242"></path><path d="M 2748.30 2131.88 L 2744.84 2154.60 L 2730.90 2156.14 L 2715.64 2160.19 L 2698.67 2167.05 L 2691.90 2172.08 L 2689.04 2175.36 L 2687.63 2178.90 L 2687.16 2182.95 L 2688.49 2184.23 L 2696.50 2185.51 L 2721.27 2185.72 L 2772.09 2183.23 C 2775.28 2183.07 2777.80 2180.44 2777.80 2177.24 L 2777.80 2123.57 L 2748.30 2131.88 Z" fill="url(#paint14_linear_91_430)" fill-rule="nonzero" node-id="278" stroke="none" target-height="62.149902" target-width="90.64014" target-x="2687.16" target-y="2123.57"></path><path d="M 2875.80 2131.88 L 2879.25 2154.60 L 2893.19 2156.14 L 2908.46 2160.19 L 2925.42 2167.05 L 2932.20 2172.08 L 2935.06 2175.36 L 2936.46 2178.90 L 2936.93 2182.95 L 2935.61 2184.23 L 2927.60 2185.51 L 2902.83 2185.72 L 2852.01 2183.23 C 2848.81 2183.07 2846.30 2180.44 2846.30 2177.24 L 2846.30 2123.57 L 2875.80 2131.88 Z" fill="url(#paint15_linear_91_430)" fill-rule="nonzero" node-id="280" stroke="none" target-height="62.149902" target-width="90.62988" target-x="2846.3" target-y="2123.57"></path><path d="M 2715.98 1717.26 L 2739.93 2136.03 C 2740.06 2138.17 2741.84 2139.83 2743.98 2139.80 L 2783.77 2139.26 C 2785.88 2139.23 2787.60 2137.58 2787.71 2135.47 L 2808.02 1749.15 L 2839.60 2135.31 C 2839.77 2137.41 2841.54 2139.02 2843.65 2138.98 L 2880.63 2138.38 C 2882.77 2138.34 2884.50 2136.63 2884.56 2134.49 L 2896.35 1718.20 L 2715.98 1717.26 Z" fill="#153f82" fill-rule="nonzero" node-id="282" stroke="none" target-height="422.57007" target-width="180.37012" target-x="2715.98" target-y="1717.26"></path><path d="M 2982.76 1541.24 L 2989.28 1537.19 L 2995.68 1535.36 L 3002.20 1535.49 L 3006.50 1535.06 L 3008.85 1533.91 L 3010.00 1532.12 L 3017.12 1531.99 L 3019.51 1533.57 L 3019.38 1536.68 L 3017.38 1540.35 L 3015.50 1541.58 L 3013.50 1541.24 L 3024.24 1546.19 L 3034.47 1538.94 L 3042.19 1539.75 L 3046.62 1541.54 L 3048.96 1543.97 L 3049.77 1547.21 L 3048.88 1551.73 L 3045.60 1555.99 L 3040.69 1560.34 L 3034.73 1563.62 L 3027.39 1565.54 L 3019.46 1565.33 L 3010.00 1562.26 L 3003.65 1558.68 L 2998.53 1557.95 L 2982.76 1541.24 Z" fill="#fecca9" fill-rule="evenodd" node-id="284" stroke="none" target-height="33.55005" target-width="67.01001" target-x="2982.76" target-y="1531.99"></path><path d="M 2614.91 1569.29 L 2610.05 1563.36 L 2604.59 1559.53 L 2598.41 1557.57 L 2594.44 1555.73 L 2592.61 1553.86 L 2592.14 1551.81 L 2585.45 1549.38 L 2582.68 1550.11 L 2581.78 1553.09 L 2582.46 1557.18 L 2583.83 1558.97 L 2585.87 1559.31 L 2574.07 1560.46 L 2566.78 1550.32 L 2559.19 1548.57 L 2554.41 1548.78 L 2551.43 1550.36 L 2549.60 1553.13 L 2549.00 1557.69 L 2550.66 1562.81 L 2553.90 1568.52 L 2558.51 1573.55 L 2564.82 1577.73 L 2572.36 1580.12 L 2582.34 1580.33 L 2589.46 1578.97 L 2594.53 1579.95 L 2614.91 1569.29 Z" fill="#fecca9" fill-rule="evenodd" node-id="286" stroke="none" target-height="31.76001" target-width="65.90991" target-x="2549" target-y="1548.57"></path><path d="M 2754.22 1432.92 L 2760.91 1437.33 C 2781.38 1450.81 2808.45 1448.30 2826.09 1431.30 L 2876.02 1445.00 C 2901.08 1451.88 2920.04 1472.44 2924.85 1497.98 L 2938.77 1571.81 L 2982.25 1535.49 L 3011.28 1562.05 L 2943.97 1663.16 L 2934.50 1671.90 L 2926.87 1676.63 L 2920.56 1678.47 L 2915.15 1678.17 L 2910.20 1675.83 L 2905.43 1671.14 L 2900.78 1663.16 L 2882.62 1540.39 L 2901.93 1722.08 L 2710.70 1724.04 L 2724.04 1540.47 L 2721.78 1580.38 L 2718.20 1609.71 L 2713.72 1630.55 L 2708.73 1644.79 L 2703.53 1654.04 L 2698.25 1659.58 L 2692.88 1662.48 L 2687.04 1663.16 L 2676.46 1658.77 L 2658.73 1647.77 L 2630.68 1626.63 L 2588.60 1590.99 L 2601.26 1557.10 L 2661.03 1588.52 L 2669.53 1511.49 C 2672.00 1489.11 2685.39 1469.41 2705.28 1458.87 L 2754.22 1432.92 Z" fill="#429cfd" fill-rule="evenodd" node-id="288" stroke="none" target-height="292.74" target-width="422.67993" target-x="2588.6" target-y="1431.3"></path><path d="M 2743.94 1305.15 C 2736.91 1296.50 2723.44 1333.16 2723.44 1305.15 C 2723.44 1305.15 2720.64 1311.25 2718.44 1299.15 C 2715.44 1282.66 2714.94 1279.66 2725.94 1268.16 C 2736.43 1257.18 2724.94 1256.16 2737.94 1238.66 C 2750.94 1221.16 2768.94 1227.15 2788.44 1222.65 C 2807.94 1218.15 2834.94 1238.15 2831.94 1243.15 C 2828.94 1248.15 2846.94 1258.65 2846.94 1263.15 C 2846.94 1267.65 2851.94 1307.16 2848.44 1314.16 C 2844.94 1321.16 2846.94 1310.16 2844.94 1301.16 C 2843.02 1292.52 2826.94 1303.16 2819.94 1301.16 C 2814.17 1299.51 2810.73 1288.80 2806.44 1290.16 C 2796.94 1293.16 2796.94 1305.15 2788.44 1303.16 C 2780.12 1301.20 2776.94 1289.16 2768.94 1292.15 C 2764.50 1293.82 2756.94 1321.16 2743.94 1305.15 Z" fill="#003a8c" fill-rule="nonzero" node-id="290" stroke="none" target-height="115.01001" target-width="137" target-x="2714.94" target-y="1218.15"></path></svg>